<?xml version="1.0" standalone="no"?><!DOCTYPE svg PUBLIC "-//W3C//DTD SVG 1.1//EN" "http://www.w3.org/Graphics/SVG/1.1/DTD/svg11.dtd"><svg width="100%" height="100%" viewBox="0 0 447 223" version="1.1" xmlns="http://www.w3.org/2000/svg" xmlns:xlink="http://www.w3.org/1999/xlink" xml:space="preserve" style="fill-rule:evenodd;clip-rule:evenodd;stroke-linejoin:round;stroke-miterlimit:1.41421;"><g><path d="M23.866,102.294l0.012,1.389l1.173,14.611l-0.039,-2.916l-0.951,-11.298l-0.195,-1.786ZM29.699,88.172l2.259,0.311l-0.314,3.51l-1.311,5.843l-0.322,7.265l0.835,8.947l1.3,11.955l1.588,13.315l1.91,12.445l1.551,9.147l1.405,12.917l-2.199,0.239l-0.658,-6.046l-0.747,-6.871l-1.551,-9.147l-1.91,-12.445l-1.587,-13.315l-0.703,-6.458l-0.054,3.343l0.005,17.936l0.643,5.908l1.987,11.881l2.445,12.248l2.358,10.171l1.772,6.064l-2.169,0.514l-1.772,-6.064l-2.358,-10.171l-0.995,-5.315l0.664,9.939l0.105,7.358l-2.198,0.239l-0.434,-3.985l-1.231,-8.765l-2.192,-16.307l-2.242,-20.613l-0.49,-5.786l0.216,12.212l0.939,16.305l2.586,23.773l0.443,6.625l-2.199,0.24l-0.358,-3.298l-0.858,-5.33l-1.214,-9.879l-2.266,-16.994l-2.272,-20.887l-1.925,-18.979l-0.211,-14.715l-0.288,-14.151l0.137,-6.411l2.229,0.036l-0.137,6.411l0.288,14.151l0.18,14.44l1.926,18.978l0.732,6.734l-0.258,-13.876l0.139,-14.059l-0.006,-10.288l-0.778,-7.146l-0.114,-3.602l-0.269,-2.474l2.199,-0.239l-0.018,-5.281l2.228,0.035l0.434,3.985l0.696,8.962l0.314,2.886l0.227,-5.586l2.228,0.035l0.494,4.535l0.833,-3.845l0.313,-3.51Z" style="fill:#fff;fill-rule:nonzero;stroke-width:0.75px;stroke:#fff;"/><path d="M99.298,85.05l5.206,-0.705l6.779,-0.32l-1.434,-0.4l-6.901,0.472l-3.65,0.953ZM89.975,169.35l-0.687,0.075l1.144,0.293l0.29,0.107l-0.747,-0.475ZM86.214,92.591l3.531,-2.052l-0.81,0.227l-2.721,1.825ZM58.763,154.67l0.182,0.398l4.732,6.437l7.227,3.802l0.275,-0.03l-2.728,-2.067l-1.479,-0.812l-0.334,-0.52l-1.661,-1.21l-5.874,-7.981l-1.195,-4.598l0.855,6.581ZM127.609,87.115l4.624,0.331l2.136,0.463l-0.395,-1.069l-2.907,-3.716l-4.421,-2.3l-6.3,-1.678l-7.51,-0.018l-8.903,1.247l-9.762,3.565l-10.058,5.96l-3.166,2.847l3.089,-2.282l10.028,-6.236l8.645,-2.331l7.45,-0.532l5.584,1.478l3.109,1.748l4.257,0.788l0.03,0.275l4.532,0.758l-0.062,0.702ZM91.176,92.191l8.692,-3.171l9.62,-1.046l8.397,-0.774l0.977,0.032l-0.29,-0.107l-0.855,-0.185l-5.066,-0.561l-5.634,0.612l-6.581,0.855l-6.784,2.824l-2.476,1.521ZM63.829,122.001l-2.559,4.588l-0.723,2.304l0.069,3.19l0.71,-3.692l2.503,-6.39ZM73.041,105.704l4.639,-5.927l7.112,-6.197l-4.663,3.149l-8.337,7.72l-6.691,8.793l-1.287,2.225l-0.675,1.464l-0.786,3.005l2.56,-4.588l7.256,-8.715l0.872,-0.929ZM73.639,150.827l5.297,6.515l6.337,5.846l2.88,2.189l4.122,-0.448l12.391,-4.963l0.789,2.139l-11.994,4.78l5.374,-0.445l6.734,-0.733l10.876,-3.546l9.993,-4.007l8.113,-3.386l1.452,-0.714l-4.018,1.411l-7.208,1.479l-7.681,0.974l-8.932,0.972l-9.479,-0.22l-9.598,-1.32l-9.046,-2.631l-6.402,-3.892ZM68.094,145.869l-1.401,-1.377l-3.803,-5.565l-0.664,-3.543l-0.54,2.7l0.362,8.443l1.133,5.299l5.584,7.874l7.346,4.902l5.583,1.478l3.161,-0.344l-1.052,-0.72l-6.366,-6.12l-6.409,-7.785l-2.934,-5.242ZM126.716,90.41l5.206,-0.705l-6.165,-0.442l-1.39,0.012l0.852,1.437l1.497,-0.302ZM77.026,105.27l5.825,-3.97l9.777,-3.428l10.661,-2.967l11.546,-2.507l8.063,-1.294l-0.669,-1.04l-0.777,-0.75l-3.328,0.084l-8.397,0.775l-9.345,1.016l-9.364,3.383l-9.189,6.283l-4.803,4.415ZM99.825,174.258l-0.884,-0.46l-2.638,-1.243l-6.181,-0.579l-9.291,-2.326l-3.782,-1.535l-6.76,-0.794l-6.48,-3.328l3.382,2.969l6.327,3.205l6.97,2.718l6.545,1.374l5.494,0.653l4.167,-0.036l2.474,-0.269l0.657,-0.349ZM101.608,175.315l-1.377,1.401l-3.298,0.359l-4.442,0.066l-5.768,-0.624l-6.85,-1.618l-7.245,-2.688l-6.632,-3.45l-5.377,-4.699l-3.649,-6.694l-0.313,-2.886l-1.782,-8.705l-0.234,-11.098l2.79,-11.426l2.177,-4.269l-0.015,-0.138l1.487,-2.942l-0.015,-0.138l0.245,-0.304l4.203,-8.661l7.945,-10.041l9.347,-8.664l10.303,-6.265l10.311,-3.625l9.177,-1.276l8.06,-0.043l6.88,1.894l5.001,2.514l3.272,4.511l1.108,2.521l0.702,0.063l3.967,0.681l3.113,0.495l0.789,2.139l-1.27,1.112l-2.903,1.428l-4.798,1.912l-6.918,1.587l-8.063,1.294l-8.612,1.354l-10.202,2.083l-9.577,2.71l-9.442,3.947l-7.827,4.745l-6.592,5.862l-2.909,3.931l-0.777,5.646l0.673,6.184l2.411,6.829l1.216,2.231l3.732,3.627l7.301,4.489l8.467,2.416l9.598,1.319l9.204,0.251l8.657,-0.942l7.68,-0.975l6.934,-1.449l6.706,-2.259l4.353,-0.891l3.572,-0.388l0.499,2.031l-2.001,0.774l-3.178,1.458l-6.082,2.886l-8.114,3.386l-9.992,4.006l-11.151,3.577l-7.008,0.762l-4.398,0.479l-0.412,0.045l1.616,0.797l1.022,0.445l3.663,0.436l10.625,-0.739l10.584,-2.402l9.338,-4.909l1.034,1.834l-9.583,5.213l-11.133,2.463l-10.077,0.679l0.29,0.107l-0.036,2.229ZM138.495,92.605l-2.139,0.789l-0.637,-2.017l-8.764,1.232l-11.606,1.958l-11.546,2.507l-10.386,2.937l-9.503,3.398l-7.796,5.019l-5.998,6.214l-1.135,2.348l5.583,-4.917l8.101,-4.775l9.688,-4.251l9.851,-2.741l10.202,-2.083l8.887,-1.384l7.788,-1.264l6.644,-1.557l4.797,-1.912l1.589,-0.729l-0.839,-0.048l-3.403,-0.603l0.622,1.879Z" style="fill:#fff;fill-rule:nonzero;stroke-width:0.75px;stroke:#fff;"/><path d="M231.632,142.261l0.029,0.275l-0.405,3.937l-1.798,5.201l-2.775,5.169l0.26,-0.168l5.212,-3.208l2.008,-3.278l0.785,-3.005l0.478,-1.999l-0.454,-1.619l-3.051,-1.197l-0.289,-0.108ZM182.646,76.679l-1.344,0.424l-3.642,3.594l4.191,-3.654l0.795,-0.364ZM177.562,83.628l-1.929,2.712l-0.171,0.992l0.15,1.374l1.72,-4.636l0.23,-0.442ZM174.084,109.173l-2.187,-4.768l-0.691,-5.069l-0.065,1.953l0.448,4.123l1.688,2.736l0.807,1.025ZM214.452,78.92l5.043,4.178l5.165,4.027l4.571,3.674l1.569,1.637l1.906,0.905l-1.339,-2.079l-3.883,-3.749l-4.282,-3.567l-5.35,-3.172l-3.4,-1.854ZM206.613,75.879l-1.174,-0.567l-4.105,-0.666l4.087,1.78l6.8,3.71l-4.571,-3.674l-1.037,-0.583ZM182.957,114.047l-2.59,-2.082l-4.888,-5.308l1.123,2.659l4.311,3.841l2.044,0.89ZM207.032,119.353l1.419,0.263l-1.022,-0.445l-9.485,-4.112l-8.738,-3.638l-7.301,-4.49l-4.721,-5.048l1.351,3.468l3.821,4.451l4.861,3.782l5.55,2.455l7.018,1.878l7.247,1.436ZM214.426,163.042l-3.814,-0.558l-0.305,-0.245l-3.161,0.344l-12.266,-2.837l-11.651,-4.85l-5.548,-3.707l1.082,0.995l4.601,3.948l5.822,3.677l5.748,2.99l7.262,1.574l12.23,-1.331ZM240.036,151.775l0.122,-0.152l0.806,-5.372l-0.418,-3.847l-1.021,5.951l-4.379,5.759l-1.437,0.852l-0.46,0.884l-2.847,3.23l2.551,-0.834l4.878,-3.728l2.205,-2.743ZM243.133,145.737l0.415,-1.296l-0.263,-4.977l-2.555,-4.31l-4.356,-4.254l-4.391,-2.025l2.698,1.792l1.111,1.27l0.152,0.122l4.234,4.406l2.492,5.013l0.463,4.259ZM197.978,120.477l2.47,0.983l5.431,1.356l6.363,0.976l5.766,1.876l5.201,1.798l4.206,2.879l3.684,4.466l0.541,3.695l-0.003,1.252l1.174,0.567l3.66,1.688l1.153,2.933l-0.143,2.519l0.836,-5.097l-1.01,-5.452l-2.862,-3.303l-5.578,-3.982l-6.48,-3.327l-7.077,-2.428l-7.871,-2.064l-0.717,-0.2l-4.655,-0.606l-4.089,-0.529ZM189.891,118.993l-3.722,-0.985l3.109,1.747l7.212,3.665l7,2.993l6.862,3.007l6.42,2.778l5.733,2.853l5.016,2.652l1.906,0.905l-0.467,-3.008l-3.044,-3.701l-3.597,-2.39l-4.926,-1.828l-5.736,-1.6l-6.088,-1.007l-5.736,-1.6l-5.796,-2.151l-4.146,-2.33ZM173.38,83.526l1.287,-2.225l0.278,-1.282l2.79,-5.031l-1.132,1.097l-3.068,6.312l-0.155,1.129ZM199.288,68.612l1.084,-0.257l6.733,-0.733l6.608,0.672l3.036,1.06l-4.957,-2.103l-6.623,-0.809l-7.175,0.503l-1.512,0.164l0.29,0.108l2.516,1.395ZM198.84,70.885l-4.75,1.073l-0.397,0.182l5.541,-0.186l2.411,0.433l-2.805,-1.502ZM193.301,69.819l2.581,-0.559l-4.851,-1.141l-0.138,0.015l-5.714,2.43l-4.819,4.278l-0.489,0.609l0.397,-0.182l6.004,-2.322l1.1,-0.119l5.929,-3.009ZM174.409,100.656l-0.463,-4.26l0.232,-1.694l-0.212,-0.672l-0.448,-4.123l-0.385,1.572l-0.072,4.457l1.166,4.322l0.182,0.398ZM223.529,161.079l-0.245,0.305l1.634,-0.317l2.569,-1.948l0.245,-0.305l-3.101,0.894l-0.49,0.609l0.03,0.275l-0.642,0.487ZM189.494,165.198l0.305,0.245l7.349,3.65l2.701,0.541l-4.926,-1.828l-5.429,-2.608ZM176.938,155.858l-3.092,-2.862l-1.811,-2.583l-0.334,-0.52l-0.625,-0.627l-2.13,-2.967l-1.506,-2.339l-0.806,-1.024l0.499,2.031l2.799,4.006l4.873,5.171l2.133,1.714ZM216.536,168.375l0.902,-0.655l-0.932,0.38l-7.008,0.762l-2.916,0.039l1.129,0.155l6.504,-0.29l2.321,-0.391ZM221.193,167.729l6.476,-1.817l5.138,-3.896l2.342,-2.757l-1.162,0.821l-8.021,2.958l-0.137,0.015l-2.584,1.811l-3.561,1.778l1.509,1.087ZM198.976,157.771l-6.31,-4.319l-5.56,-5.096l4.523,4.514l5.288,3.874l2.059,1.027ZM163.93,137.251l2.228,0.036l0.06,0.55l0.122,-0.153l1.676,1.347l3.197,3.824l0.275,-0.03l0.03,0.275l5.088,4.591l7.788,5.131l8.463,3.668l-2.697,-1.792l-6.701,-6.64l-5.525,-7.325l-3.665,-5.58l-1.76,-4.675l-0.314,-2.886l2.198,-0.239l0.284,2.611l0.41,1.207l0.23,-0.442l2.013,0.615l-0.415,1.297l0.941,2.261l4.293,4.956l5.695,6.332l6.292,5.434l6.476,4.579l5.718,2.715l1.145,0.292l1.526,-0.027l-0.092,0.427l1.586,0.523l7.16,-0.64l5.652,-1.727l1.347,-1.676l2.76,-5.306l1.553,-4.896l0.466,-3.388l-0.012,-1.389l-2.79,-1.365l-5.016,-2.652l-5.733,-2.852l-6.42,-2.778l-6.862,-3.008l-7,-2.992l-7.486,-3.635l-7.774,-4.995l-6.324,-4.456l-2.543,-2.921l-2.022,-3.256l-0.509,-4.673l-0.015,-6.533l1.427,-3.492l-0.161,-2.763l1.329,-6.958l3.282,-6.892l5.126,-5.285l5.365,-3.086l4.947,-0.538l0.535,-0.198l6.978,-1.037l7.45,-0.532l7.203,1.024l5.977,2.547l4.906,4.194l0.32,0.383l0.442,0.23l3.901,2.634l3.275,3.259l2.267,2.951l1.172,1.819l0.989,1.422l-1.805,1.309l-0.989,-1.422l-1.171,-1.819l-2.237,-2.677l-2.041,-2.141l1.748,3.286l0.729,1.589l-2.109,1.063l-0.729,-1.589l-1.823,-3.973l-3.104,-4.25l-3.659,-1.688l-5.339,-1.783l-6.058,-0.731l-4.672,0.508l0.442,0.23l4.801,3.232l5.505,2.043l5.871,2.837l5.38,3.447l4.586,3.811l4.189,3.994l3.026,4.815l-1.484,1.691l-2.319,-0.86l-1.147,0.959l-1.765,-2.171l-1.022,-0.445l-5.381,-3.447l-5.852,-3.952l-6.202,-4.609l-6.495,-3.465l-5.55,-2.455l-6.014,-0.319l-4.672,0.508l-4.478,2.295l-0.765,0.639l-3.676,5.823l-2.381,6.238l-0.466,3.387l1.698,5.377l5.147,5.141l6.722,4.274l8.738,3.638l9.485,4.113l10.08,4.465l0.29,0.108l2.868,0.8l8.83,3.21l7.182,3.39l4.966,4.744l2.919,5.105l0.353,5.801l-2.121,6.071l-1.974,2.3l-2.912,5.183l-4.439,5.211l-5.658,4.23l-6.996,2.152l-4.382,0.615l-1.01,0.944l-5.771,0.628l-6.901,0.473l-7.11,-1.451l-7.929,-3.865l-7.97,-5.529l-7.329,-6.016l-5.177,-5.415l-3.134,-4.526l-1.043,-4.475l-0.021,-4.03Z" style="fill:#fff;fill-rule:nonzero;stroke-width:0.75px;stroke:#fff;"/></g><g><path d="M264.866,112.702c46.617,-47.375 103.907,-58.093 167.149,-49.94" style="fill:none;stroke-width:9px;stroke-linecap:round;stroke-dasharray:9,13.5,0,0;stroke:#fff;"/><path d="M392.663,84.061l39.311,-21.24l-39.446,-31.172" style="fill:none;stroke-width:9px;stroke-linecap:round;stroke-dasharray:9,13.5,0,0;stroke:#fff;"/></g></svg>